<?xml version="1.0" standalone="no"?>
<!DOCTYPE svg PUBLIC "-//W3C//DTD SVG 20010904//EN"
 "http://www.w3.org/TR/2001/REC-SVG-20010904/DTD/svg10.dtd">
<svg version="1.0" xmlns="http://www.w3.org/2000/svg"
 width="927.000000pt" height="913.000000pt" viewBox="0 0 927.000000 913.000000"
 preserveAspectRatio="xMidYMid meet">

<g transform="translate(0.000000,913.000000) scale(0.100000,-0.100000)"
fill="#000000" stroke="none">
<path d="M4390 9059 c-83 -13 -134 -18 -260 -30 -229 -21 -404 -52 -667 -121
-118 -30 -368 -109 -418 -132 -16 -8 -41 -17 -55 -21 -91 -27 -514 -230 -645
-311 -33 -20 -69 -42 -80 -48 -86 -50 -285 -189 -410 -285 -381 -296 -705
-644 -983 -1056 -52 -77 -97 -147 -100 -155 -3 -8 -8 -17 -11 -20 -32 -28
-213 -381 -311 -609 -33 -76 -39 -92 -109 -299 -111 -329 -182 -674 -211
-1021 -5 -58 -14 -140 -19 -181 -36 -277 32 -898 145 -1330 123 -468 351 -979
597 -1334 11 -17 46 -68 78 -115 144 -216 498 -612 689 -772 30 -25 87 -73
126 -107 452 -386 1094 -720 1689 -877 393 -104 919 -173 1229 -162 154 6 421
29 534 47 34 5 95 15 135 21 241 38 609 136 807 214 218 85 302 122 461 201
308 153 671 391 879 578 25 23 74 65 108 95 132 113 364 355 504 526 65 80
197 260 252 345 16 25 41 63 56 85 78 117 273 487 321 608 11 28 27 66 34 82
89 199 214 620 260 875 41 227 85 650 85 815 0 105 -27 425 -51 605 -33 250
-135 680 -204 860 -7 19 -27 73 -45 120 -170 454 -448 930 -743 1275 -38 44
-92 107 -120 140 -60 69 -251 262 -317 320 -213 187 -292 250 -477 378 -360
249 -711 425 -1128 567 -200 68 -557 154 -750 180 -409 55 -718 72 -875 49z
m690 -188 c700 -83 1331 -312 1905 -694 263 -175 434 -316 671 -552 197 -197
318 -339 474 -559 220 -310 392 -632 524 -986 342 -913 365 -1901 66 -2835
-142 -442 -400 -935 -675 -1291 -192 -248 -456 -524 -675 -706 -404 -336 -887
-607 -1370 -771 -309 -105 -596 -170 -920 -208 -252 -30 -705 -33 -920 -6
-395 50 -624 100 -944 209 -648 218 -1226 582 -1707 1075 -214 220 -376 421
-541 674 -239 365 -448 836 -548 1229 -12 47 -28 110 -35 140 -78 307 -123
748 -112 1090 6 184 35 496 57 605 54 280 99 455 166 654 88 261 216 547 352
786 112 197 359 541 506 705 80 89 319 326 394 392 275 238 549 425 867 589
486 251 951 394 1495 459 287 34 683 35 970 1z"/>
<path d="M4415 8734 c-312 -19 -562 -57 -837 -128 -917 -238 -1740 -791 -2305
-1552 -96 -129 -124 -170 -222 -329 -70 -113 -244 -454 -286 -560 -15 -38 -33
-83 -41 -100 -28 -61 -116 -344 -154 -495 -37 -145 -71 -329 -102 -550 -9 -65
-13 -207 -13 -455 1 -318 3 -378 23 -518 108 -759 368 -1398 804 -1972 142
-187 166 -215 305 -363 172 -183 327 -322 518 -466 444 -336 933 -574 1456
-710 203 -53 442 -96 644 -118 155 -17 672 -16 825 0 583 64 1129 241 1650
536 47 27 99 58 115 70 17 12 48 32 70 45 60 34 268 185 365 264 143 117 219
185 361 325 182 179 263 275 377 445 52 78 107 158 122 177 56 73 150 235 241
414 216 423 346 837 418 1324 21 140 42 496 36 617 -17 372 -31 496 -85 766
-184 914 -683 1745 -1425 2375 -226 191 -561 406 -855 548 -187 89 -244 113
-423 176 -434 154 -830 225 -1302 234 -121 2 -247 2 -280 0z m163 -211 c-2
-10 -14 -19 -26 -21 -24 -4 -24 -4 -17 -118 3 -63 8 -131 10 -152 1 -20 6 -86
9 -147 4 -60 9 -127 12 -147 5 -32 3 -38 -13 -38 -11 0 -31 23 -54 63 -20 34
-87 147 -150 250 -133 220 -128 222 -109 -48 16 -236 19 -249 53 -253 33 -4
37 -32 5 -32 -13 0 -46 -3 -74 -6 -40 -5 -52 -3 -57 9 -4 10 3 17 25 21 l31 6
-7 138 c-4 75 -11 175 -16 222 -6 47 -10 108 -10 136 0 55 -12 74 -48 74 -46
0 -15 25 39 31 59 7 69 2 97 -48 62 -108 236 -392 240 -389 5 6 -18 344 -26
386 -6 29 -13 36 -35 38 -44 5 -26 26 29 33 91 11 96 10 92 -8z m411 -1 c84
-9 96 -32 17 -32 -50 0 -56 -2 -60 -22 -7 -32 -29 -378 -30 -468 l-1 -75 30
-3 c55 -5 75 -12 75 -28 0 -14 -9 -15 -52 -11 -29 4 -97 9 -150 13 -74 5 -98
10 -98 20 0 10 15 14 55 14 36 0 57 5 60 13 4 11 19 204 33 423 9 137 10 134
-48 134 -47 0 -67 10 -56 29 5 8 105 5 225 -7z m423 -66 c10 -14 0 -26 -23
-26 -18 0 -19 -9 -19 -211 0 -150 3 -210 11 -207 11 4 89 142 167 296 34 67
36 74 20 83 -10 6 -18 17 -18 26 0 16 3 16 93 -8 42 -11 51 -39 13 -39 -34 0
-22 18 -169 -260 -40 -74 -77 -144 -83 -155 -7 -11 -24 -44 -39 -72 -14 -29
-32 -53 -39 -53 -18 0 -26 129 -26 396 0 180 -2 215 -16 228 -8 9 -20 16 -26
16 -7 0 -7 5 1 14 9 11 22 11 79 -3 37 -8 70 -20 74 -25z m-1414 15 c2 -7 -5
-15 -17 -18 -12 -3 -21 -13 -21 -22 0 -9 23 -112 50 -230 28 -118 50 -227 50
-243 0 -41 -24 -82 -66 -115 -50 -38 -152 -45 -202 -13 -44 27 -55 57 -114
309 -27 119 -51 218 -54 220 -2 2 -13 4 -25 5 -38 2 -33 24 9 35 107 29 162
24 110 -11 -25 -17 -27 0 41 -291 49 -209 54 -222 92 -238 62 -25 140 8 166
69 14 34 13 44 -11 147 -14 60 -38 164 -54 230 -23 100 -31 120 -47 123 -62
10 -55 26 21 47 55 15 66 14 72 -4z m1902 -140 c30 -11 100 -38 155 -59 l100
-39 0 -69 c0 -83 -20 -95 -41 -24 -23 77 -33 88 -106 116 -38 14 -75 24 -82
21 -13 -5 -72 -146 -82 -197 -5 -22 0 -27 44 -42 69 -25 88 -23 114 12 25 34
38 38 37 13 -1 -29 -65 -187 -77 -191 -7 -2 -12 17 -14 50 -3 50 -5 54 -38 70
-20 10 -49 20 -66 24 -27 5 -31 3 -41 -28 -6 -18 -27 -75 -47 -127 -27 -69
-33 -97 -25 -107 18 -22 138 -57 175 -51 19 3 53 20 75 38 22 17 43 29 46 25
15 -15 -69 -126 -95 -126 -30 1 -335 125 -340 138 -2 8 7 12 27 12 37 0 34 -4
106 186 32 82 66 172 77 199 11 28 25 70 31 94 9 37 9 45 -6 56 -22 16 -22 39
1 32 9 -3 42 -14 72 -26z m-2950 -196 c0 -9 -7 -18 -15 -21 -8 -4 -15 -14 -15
-24 0 -10 55 -116 122 -237 154 -276 148 -266 148 -280 0 -7 -5 -13 -10 -13
-13 0 -156 92 -352 228 -82 55 -148 97 -148 92 0 -13 208 -391 227 -412 12
-14 19 -15 34 -5 14 9 21 9 30 0 9 -9 5 -16 -21 -30 -18 -10 -48 -28 -66 -40
-29 -19 -36 -20 -40 -8 -4 9 3 23 16 33 l23 19 -105 189 c-58 104 -118 213
-133 242 -26 48 -31 52 -61 50 -48 -4 -43 12 12 44 l49 27 213 -140 c118 -78
216 -139 218 -136 3 2 -39 83 -93 178 -93 165 -100 174 -128 174 -49 0 -42 18
21 52 68 37 74 39 74 18z m3588 -101 c37 -24 59 -47 74 -78 20 -42 20 -48 8
-87 -28 -83 -86 -129 -164 -129 -52 0 -48 7 -66 -155 -6 -55 -13 -108 -16
-117 -3 -9 5 -27 16 -38 37 -37 9 -47 -43 -17 l-44 26 18 148 c24 197 24 190
-10 208 l-29 15 -61 -112 c-34 -61 -61 -118 -61 -126 0 -8 8 -21 18 -28 15
-12 15 -15 2 -23 -10 -7 -21 -6 -35 3 -11 7 -41 25 -67 40 -27 15 -48 34 -48
42 0 17 5 17 29 4 14 -7 22 -5 33 8 14 16 115 192 193 337 21 39 44 79 52 90
18 26 16 55 -4 70 -9 7 -13 17 -9 24 8 12 101 -34 214 -105z m411 -260 c34
-17 61 -40 76 -65 25 -39 57 -63 69 -52 3 3 6 -1 6 -10 0 -24 -71 -128 -84
-124 -6 3 -9 11 -8 18 2 8 4 40 3 72 -1 73 -24 109 -86 132 -42 17 -46 17 -82
-2 -78 -40 -80 -85 -12 -224 42 -85 51 -113 50 -155 0 -67 -12 -94 -55 -132
-52 -46 -107 -58 -165 -36 -52 19 -96 55 -117 97 -9 17 -26 30 -44 34 -17 3
-30 10 -30 15 0 20 84 158 95 155 10 -4 10 -12 -1 -88 -9 -63 9 -112 54 -149
62 -51 150 -32 187 41 22 41 14 81 -34 184 -70 149 -74 186 -23 247 28 33 93
67 128 68 11 0 44 -12 73 -26z m-4449 -185 c271 -216 264 -210 297 -207 44 5
34 -16 -31 -67 -60 -46 -91 -49 -64 -6 12 20 10 25 -22 52 -19 16 -54 43 -78
60 l-43 31 -55 -42 c-29 -24 -54 -49 -54 -56 0 -22 55 -138 72 -152 8 -7 26
-11 39 -10 37 4 28 -17 -23 -56 -55 -42 -73 -46 -63 -13 11 36 11 37 -49 172
-94 212 -176 403 -176 412 0 20 32 54 43 45 7 -5 100 -78 207 -163z m2555 82
c155 -23 265 -46 360 -72 610 -173 1091 -463 1497 -903 329 -357 541 -721 696
-1196 67 -204 117 -478 137 -742 4 -49 9 -88 13 -88 3 0 39 21 81 47 95 59
241 177 349 282 46 45 87 81 93 81 5 0 7 -17 4 -37 -3 -21 -14 -108 -26 -193
-50 -374 -176 -571 -453 -711 l-91 -46 0 -524 0 -524 65 -5 64 -5 49 -70 c26
-38 81 -119 121 -180 l72 -110 50 -3 c71 -4 80 -8 62 -30 -9 -9 -52 -79 -97
-154 l-82 -138 -501 0 -501 0 -66 -57 c-36 -31 -70 -62 -76 -68 -55 -60 -473
-354 -638 -449 -506 -290 -1053 -436 -1639 -436 -617 0 -1215 171 -1735 496
-205 128 -317 222 -510 427 l-92 98 -518 -2 -518 -2 -65 101 c-93 143 -124
196 -125 207 0 6 29 12 63 15 l64 5 83 160 84 160 58 5 58 5 3 527 2 527 -99
51 c-174 89 -308 247 -386 455 -43 116 -89 305 -120 496 -7 44 5 41 57 -16
117 -129 489 -385 559 -385 23 0 26 15 33 140 20 392 155 853 360 1235 78 145
223 364 333 500 102 127 331 359 424 430 35 27 66 52 69 55 20 23 179 135 296
207 109 69 376 202 504 252 256 99 582 177 842 200 168 15 582 5 733 -18z
m-3040 -193 c-6 -32 1 -39 180 -213 103 -99 193 -184 202 -189 9 -5 19 -4 26
3 15 15 27 14 27 -1 0 -17 -91 -108 -107 -108 -15 0 -17 16 -3 25 6 3 10 11
10 16 0 9 -190 199 -199 199 -2 0 -35 -32 -73 -72 l-69 -72 95 -94 c87 -85 98
-93 125 -87 47 10 43 -8 -13 -64 -53 -52 -88 -63 -65 -19 12 22 25 7 -259 281
-109 106 -135 127 -147 117 -8 -7 -22 -9 -32 -6 -14 6 -7 17 37 61 62 63 97
76 70 26 -7 -14 1 -29 41 -74 27 -30 67 -70 89 -87 l40 -32 65 69 c35 37 64
73 65 79 0 14 -154 164 -170 164 -6 0 -20 -5 -31 -10 -36 -20 -21 19 28 71 55
58 77 64 68 17z m5398 -116 c53 -55 97 -104 97 -110 0 -22 -25 -12 -49 18 -24
31 -64 40 -78 18 -4 -7 -90 -91 -190 -187 -101 -96 -183 -178 -183 -182 0 -5
16 -27 35 -48 24 -26 32 -42 24 -46 -13 -8 -209 182 -209 202 0 21 17 15 53
-17 19 -16 40 -30 47 -30 6 0 69 55 138 123 70 68 158 153 197 189 l69 66 -37
45 c-20 25 -37 48 -37 51 0 22 39 -7 123 -92z m-5782 -273 c-2 -8 -6 -21 -8
-30 -3 -12 23 -37 94 -88 248 -178 279 -202 301 -233 29 -43 29 -110 -1 -162
-30 -53 -95 -98 -141 -98 -46 0 -85 23 -276 164 -192 141 -175 132 -204 113
-43 -29 -39 2 9 70 50 70 71 82 62 37 -7 -35 -3 -41 58 -82 28 -19 93 -66 146
-106 145 -109 187 -134 230 -134 81 0 132 126 78 194 -12 15 -36 37 -54 49
-18 12 -70 49 -115 82 -174 127 -213 153 -226 148 -8 -3 -14 -9 -14 -14 0 -5
-7 -9 -15 -9 -17 0 -20 26 -5 35 6 4 22 25 36 46 23 37 54 49 45 18z m6115
-116 c111 -154 124 -173 124 -182 0 -15 -82 -101 -96 -101 -18 0 -18 1 11 51
14 24 25 52 25 62 0 26 -31 77 -47 77 -7 0 -66 -39 -131 -87 -66 -49 -163
-119 -216 -158 -72 -52 -96 -75 -96 -92 0 -12 5 -25 10 -28 15 -9 12 -25 -5
-25 -16 0 -114 126 -115 148 0 17 27 15 34 -3 9 -26 35 -17 109 38 40 29 115
84 167 122 192 139 200 146 191 164 -24 43 -47 53 -110 46 -51 -6 -61 -4 -61
8 0 9 19 22 48 33 26 9 51 21 56 25 16 14 34 -3 102 -98z m-6434 -335 c-3 -18
23 -42 121 -116 223 -167 346 -269 347 -284 0 -10 -1 -18 -3 -18 -4 0 -194 66
-271 94 -39 14 -71 24 -73 22 -2 -2 45 -43 104 -92 59 -49 124 -103 143 -121
57 -53 18 -51 -147 7 -359 126 -405 141 -419 129 -31 -26 -33 4 -3 63 29 58
43 65 51 23 2 -14 29 -29 108 -58 58 -21 136 -50 173 -64 38 -14 70 -23 73
-20 3 3 -37 39 -89 80 -52 42 -98 80 -101 86 -4 5 -31 19 -61 30 -45 17 -59
19 -75 9 -33 -21 -34 -1 -4 57 31 58 51 70 56 33 2 -18 18 -29 73 -50 162 -62
246 -91 250 -86 3 3 -20 25 -51 49 -31 24 -91 72 -134 107 -71 57 -80 62 -99
50 -36 -22 -43 2 -15 50 24 41 52 53 46 20z m6706 -61 c17 -35 32 -66 32 -70
0 -12 -23 -8 -40 8 -16 14 -25 7 -114 -88 -53 -58 -96 -110 -96 -117 0 -8 10
-11 33 -7 17 3 73 11 122 17 121 16 139 23 131 56 -12 46 24 23 57 -38 36 -63
31 -81 -14 -54 -28 17 -37 17 -192 0 -162 -18 -162 -18 -262 -70 l-100 -51 2
-37 c4 -59 -19 -43 -65 44 -46 87 -47 118 -2 75 l27 -26 79 42 c98 52 103 56
231 207 65 76 106 133 108 150 2 15 4 28 4 29 1 1 7 0 14 -2 6 -3 27 -34 45
-68z m-1862 -5012 c9 -14 13 -32 9 -45 -10 -31 12 -24 30 10 18 35 57 41 87
13 23 -21 23 -45 -1 -67 -17 -16 -61 -123 -61 -149 0 -6 9 -2 19 7 13 12 27
15 41 11 20 -6 21 -12 16 -46 -4 -22 -15 -56 -26 -77 -24 -44 -24 -52 -6 -78
14 -19 15 -19 40 5 26 25 56 23 56 -3 0 -9 -11 -23 -25 -32 -32 -21 -31 -27 6
-86 l32 -49 -20 -27 c-21 -28 -64 -39 -109 -28 -31 8 -30 24 1 36 32 12 42 37
23 57 -14 13 -19 10 -53 -31 -38 -47 -71 -59 -82 -30 -4 10 10 32 41 63 51 52
53 60 30 100 -16 27 -15 30 10 73 29 50 32 68 13 68 -7 0 -33 -39 -57 -87 -24
-49 -60 -107 -78 -131 -31 -40 -37 -43 -75 -40 -52 4 -58 22 -15 47 33 20 148
160 148 180 0 7 -10 9 -25 5 -22 -5 -25 -3 -25 19 0 14 -7 30 -16 35 -18 10
-11 32 11 32 7 0 15 10 17 23 2 17 10 22 32 22 26 1 56 26 56 47 0 15 -30 8
-37 -8 -4 -11 -13 -13 -34 -9 -18 4 -29 2 -29 -4 0 -6 -7 -11 -16 -11 -12 0
-15 6 -10 25 5 18 1 28 -14 37 -30 19 -25 38 11 38 31 0 32 0 27 44 -8 66 26
90 58 41z m-2589 -155 c15 -30 1 -58 -67 -136 -27 -31 -50 -61 -50 -66 0 -6
10 -18 22 -28 19 -15 20 -20 9 -34 -10 -11 -18 -13 -31 -6 -10 6 -21 10 -25
10 -13 0 -54 -111 -60 -162 l-6 -53 21 25 c12 14 29 34 36 45 10 14 17 16 25
8 24 -24 -41 -135 -117 -202 -29 -26 -38 -29 -54 -21 -24 13 -25 24 -5 80 8
23 15 61 15 83 l0 40 -57 -7 c-110 -12 -288 -9 -313 4 -28 15 -59 50 -60 67 0
20 21 19 92 -4 53 -17 94 -23 162 -23 99 0 136 14 136 51 0 22 -15 24 -50 4
-35 -20 -57 -18 -70 5 -9 16 -5 24 20 46 43 39 40 61 -11 69 -22 4 -43 4 -46
1 -10 -10 -43 14 -58 44 -14 27 -14 31 -1 36 8 3 31 1 51 -6 41 -14 225 -59
272 -67 31 -5 34 -2 77 65 25 38 55 95 67 126 20 55 22 57 42 43 12 -8 27 -25
34 -37z m-177 -96 c27 -26 0 -49 -55 -48 -39 0 -52 5 -71 28 -13 15 -24 32
-24 37 0 15 132 0 150 -17z m2646 -22 c18 -23 17 -59 -1 -66 -8 -3 -15 -16
-15 -30 0 -13 -3 -31 -6 -40 -7 -19 -43 -21 -48 -3 -25 92 -28 120 -13 129 10
5 14 15 10 25 -5 14 -1 15 27 10 18 -4 39 -15 46 -25z m-2418 -54 c17 -17 15
-68 -5 -90 -19 -22 -61 -24 -69 -3 -3 8 3 27 13 42 11 15 23 36 26 46 7 20 18
22 35 5z m692 -102 c-1 -21 -13 -45 -35 -71 l-35 -40 0 31 c0 27 10 63 36 134
9 24 34 -17 34 -54z m325 35 c9 -30 -11 -67 -49 -89 -43 -25 -46 -49 -9 -78
30 -24 26 -52 -8 -61 -16 -5 -19 -11 -14 -31 4 -17 -2 -36 -20 -64 -26 -39
-26 -70 0 -35 10 15 21 17 44 12 17 -4 31 -13 31 -20 0 -17 -58 -53 -100 -62
-21 -4 -49 -23 -76 -51 -49 -51 -76 -49 -44 4 22 35 20 54 -6 54 -24 0 -10 24
17 30 15 4 25 14 27 28 3 20 1 21 -22 11 -13 -6 -32 -9 -40 -6 -18 7 -22 42
-6 52 14 8 50 80 50 98 0 8 -14 20 -30 27 -39 16 -34 30 15 47 47 16 75 40 75
65 0 20 20 24 38 6 9 -9 12 -7 12 9 0 29 16 38 28 16 9 -14 13 -15 26 -4 9 7
16 21 16 31 0 33 35 43 45 11z m-1545 -49 c0 -35 -16 -52 -51 -52 -27 0 -57
25 -46 37 17 17 64 42 80 42 12 1 17 -7 17 -27z m2259 -58 c20 -14 22 -22 17
-55 -7 -43 -5 -45 24 -27 16 10 23 10 36 -3 14 -15 13 -18 -18 -40 -61 -42
-64 -65 -10 -75 80 -14 113 -66 51 -79 -32 -7 -48 4 -49 33 0 6 -4 12 -9 12
-5 0 -17 3 -25 6 -12 5 -21 -6 -36 -40 -22 -47 -44 -66 -79 -66 -31 0 -26 14
24 70 25 28 45 55 45 60 0 15 -25 12 -58 -7 -25 -14 -32 -15 -46 -4 -27 22
-18 40 27 52 23 6 48 16 55 21 15 13 16 67 2 104 -20 51 4 69 49 38z m-1074
-93 c8 -16 20 -31 27 -34 9 -3 3 -23 -22 -72 -19 -38 -48 -109 -65 -159 -24
-73 -34 -91 -50 -91 -10 0 -26 12 -34 26 -14 25 -13 31 7 70 12 24 30 71 41
104 10 33 27 83 36 110 9 28 19 56 21 63 6 21 23 13 39 -17z m275 -283 c35
-58 17 -96 -40 -83 -33 7 -38 19 -14 42 10 10 13 25 9 44 -9 41 19 39 45 -3z"/>
<path d="M6397 8018 c-9 -18 -34 -66 -57 -106 l-40 -72 32 -20 c57 -35 103
-43 143 -24 66 31 99 131 61 189 -21 31 -73 65 -102 65 -13 0 -26 -12 -37 -32z"/>
<path d="M2320 7635 c0 -3 4 -13 9 -23 17 -29 78 -167 85 -190 4 -12 12 -22
18 -22 15 0 100 70 96 80 -4 10 -191 160 -200 160 -5 0 -8 -2 -8 -5z"/>
<path d="M4360 7590 c-547 -52 -1045 -235 -1487 -547 -577 -408 -1003 -1019
-1182 -1693 -56 -213 -87 -394 -97 -577 -8 -138 -10 -134 67 -107 l46 17 11
151 c6 83 15 174 21 201 77 373 138 560 266 816 152 306 296 508 534 752 246
252 478 420 786 572 302 148 574 233 901 281 150 23 603 26 734 6 167 -25 216
-35 320 -58 522 -121 1003 -391 1400 -784 371 -369 657 -885 775 -1400 37
-161 71 -424 69 -537 l0 -33 57 0 c36 0 58 4 61 13 7 19 -10 230 -27 347 -29
191 -47 267 -116 485 -329 1042 -1237 1845 -2314 2050 -237 45 -610 65 -825
45z"/>
<path d="M4494 6756 c-11 -28 7 -36 82 -36 72 0 75 1 72 23 -3 20 -9 22 -76
25 -57 2 -74 0 -78 -12z"/>
<path d="M4461 6659 c-18 -51 -13 -88 14 -115 26 -26 31 -44 16 -59 -5 -6 -17
-37 -27 -70 -26 -83 -26 -331 0 -389 l17 -39 52 7 c29 3 71 6 93 6 41 0 41 0
57 53 34 114 27 312 -14 406 -24 55 -24 55 7 86 23 23 26 33 21 71 -7 69 -15
74 -127 74 l-98 0 -11 -31z"/>
<path d="M3927 6013 c-4 -3 -7 -48 -7 -99 0 -89 1 -94 25 -110 24 -16 25 -21
25 -116 l0 -99 -67 -30 c-83 -38 -128 -45 -188 -30 -64 16 -181 87 -242 148
l-53 52 0 -64 c0 -34 7 -97 16 -138 13 -67 14 -81 0 -134 -19 -71 -43 -93
-130 -116 -130 -35 -255 -17 -359 52 -34 22 -63 37 -65 32 -7 -19 74 -160 130
-228 77 -93 130 -124 219 -131 60 -4 70 -2 100 21 64 47 232 123 349 156 14 4
446 6 960 6 l935 -2 105 -37 c58 -21 133 -56 167 -78 62 -40 64 -40 129 -33
60 6 73 12 130 57 35 27 79 70 97 96 40 54 111 192 99 192 -4 0 -25 -14 -46
-32 -105 -86 -411 -89 -501 -3 -44 41 -53 89 -32 180 9 38 19 102 22 140 l6
70 -40 -46 c-48 -55 -159 -131 -224 -153 -61 -21 -158 -13 -237 20 l-55 22 -3
101 -3 100 31 22 c29 22 30 25 30 105 0 116 1 114 -86 114 -72 0 -75 -1 -84
-27 -20 -57 -13 -55 -200 -54 -145 0 -175 3 -182 16 -13 22 -223 22 -235 0 -7
-13 -35 -15 -153 -16 -213 -1 -199 -3 -206 29 -11 47 -22 52 -99 52 -39 0 -75
-3 -78 -7z"/>
<path d="M2006 4967 c-103 -200 -113 -216 -181 -280 -55 -52 -91 -76 -146 -99
-70 -28 -79 -30 -166 -24 -151 10 -220 42 -386 182 -76 63 -142 114 -146 112
-8 -3 71 -263 88 -288 6 -8 26 -44 45 -80 61 -117 186 -236 314 -300 l61 -30
3082 0 3082 0 96 57 c142 85 222 159 295 272 52 81 68 117 101 229 21 72 35
135 32 138 -5 5 -146 -104 -177 -136 -42 -43 -127 -98 -188 -122 -66 -26 -91
-30 -182 -31 -80 -2 -113 2 -140 15 -19 9 -44 19 -55 22 -11 4 -56 41 -101 84
-61 58 -91 96 -119 152 -21 41 -69 133 -105 204 -37 72 -71 131 -76 133 -5 2
-56 -89 -113 -202 -99 -195 -108 -209 -183 -283 -68 -67 -89 -81 -156 -105
-70 -26 -85 -28 -165 -22 -139 9 -225 47 -350 154 -119 101 -176 145 -181 140
-2 -2 4 -31 14 -64 9 -33 27 -92 38 -132 23 -81 101 -204 203 -322 34 -40 59
-74 56 -77 -4 -4 -1565 -6 -3150 -4 l-98 0 73 88 c87 103 153 197 175 249 8
21 28 83 43 138 16 55 32 109 36 119 11 28 -6 16 -161 -113 -161 -134 -228
-166 -372 -177 -80 -6 -95 -4 -164 20 -66 24 -86 38 -156 106 -84 81 -104 114
-247 408 -22 45 -45 82 -50 82 -6 0 -60 -96 -120 -213z"/>
<path d="M4260 5100 c-23 -23 -24 -30 -7 -53 10 -14 32 -17 137 -18 152 -2
170 2 170 41 0 43 -23 50 -159 50 -108 0 -123 -2 -141 -20z"/>
<path d="M4668 5109 c-19 -11 -25 -64 -9 -73 14 -9 253 -10 278 -2 29 9 36 34
18 62 -15 23 -20 24 -143 24 -70 0 -135 -5 -144 -11z"/>
<path d="M5076 5107 c-12 -9 -17 -23 -14 -42 3 -25 9 -30 43 -38 52 -11 243
-1 261 14 21 17 17 46 -8 63 -30 21 -255 23 -282 3z"/>
<path d="M3862 5098 c-7 -7 -12 -21 -12 -33 0 -40 17 -45 156 -45 107 0 136 3
148 16 9 8 16 22 16 29 0 7 -7 21 -16 29 -12 13 -41 16 -148 16 -89 0 -136 -4
-144 -12z"/>
<path d="M3660 5090 c-14 -4 -54 -15 -90 -25 -103 -27 -120 -36 -126 -62 -8
-30 14 -56 48 -55 43 0 232 56 250 74 23 23 23 33 -2 58 -21 21 -39 23 -80 10z"/>
<path d="M5502 5088 c-27 -27 -6 -80 36 -91 9 -3 63 -17 119 -32 115 -31 149
-28 159 11 10 41 -19 59 -147 93 -128 34 -149 37 -167 19z"/>
<path d="M2360 4831 c0 -5 14 -25 32 -45 l32 -36 317 0 316 0 42 36 c22 20 41
40 41 45 0 5 -172 9 -390 9 -226 0 -390 -4 -390 -9z"/>
<path d="M3296 4818 c-3 -13 -6 -31 -6 -40 0 -17 68 -18 1296 -18 1291 0 1295
0 1290 20 -3 11 -9 29 -12 40 -5 20 -14 20 -1284 20 l-1278 0 -6 -22z"/>
<path d="M6030 4800 l45 -40 332 0 332 0 25 33 c15 19 26 37 26 40 0 4 -181 7
-402 7 l-403 -1 45 -39z"/>
<path d="M3272 4708 c-39 -39 -64 -38 1308 -38 726 0 1320 3 1320 8 0 4 -5 14
-10 22 -8 13 -166 15 -1308 17 -997 2 -1301 0 -1310 -9z"/>
<path d="M6150 4705 c0 -2 10 -13 22 -25 21 -19 34 -20 248 -20 207 0 228 2
243 18 10 10 17 22 17 25 0 4 -119 7 -265 7 -146 0 -265 -2 -265 -5z"/>
<path d="M2480 4692 c0 -28 30 -32 255 -32 175 1 234 4 248 14 9 7 17 16 17
20 0 3 -117 6 -260 6 -143 0 -260 -4 -260 -8z"/>
<path d="M3253 4633 c-7 -2 -24 -27 -38 -55 -23 -45 -25 -61 -25 -169 l0 -119
50 0 50 0 -2 172 c-3 167 -6 183 -35 171z"/>
<path d="M3328 4627 c-3 -7 -4 -84 -3 -172 l1 -160 49 0 50 0 0 155 c0 85 -3
162 -7 171 -9 20 -84 24 -90 6z"/>
<path d="M3467 4634 c-4 -4 -7 -83 -7 -176 l0 -169 48 3 47 3 0 170 0 170 -40
3 c-23 2 -44 0 -48 -4z"/>
<path d="M3595 4628 c-3 -8 -4 -86 -3 -173 l3 -160 48 -3 47 -3 -2 173 -3 173
-43 3 c-28 2 -44 -1 -47 -10z"/>
<path d="M3737 4633 c-4 -3 -7 -82 -7 -175 l0 -169 48 3 47 3 3 159 c2 108 -1
163 -9 172 -12 14 -70 19 -82 7z"/>
<path d="M3867 4634 c-4 -4 -7 -83 -7 -176 l0 -168 50 0 50 0 -2 173 -3 172
-40 3 c-23 2 -44 0 -48 -4z"/>
<path d="M3994 4616 c-3 -14 -4 -91 -2 -173 l4 -148 47 -3 47 -3 -2 173 -3
173 -42 3 c-38 3 -43 1 -49 -22z"/>
<path d="M4133 4623 c-4 -10 -7 -88 -8 -173 l0 -155 50 0 50 0 0 170 0 170
-43 3 c-33 3 -44 -1 -49 -15z"/>
<path d="M4264 4627 c-2 -7 -3 -85 -2 -172 l3 -160 48 -3 47 -3 0 169 c0 186
1 182 -61 182 -16 0 -32 -6 -35 -13z"/>
<path d="M4407 4633 c-4 -3 -7 -82 -7 -175 l0 -168 44 0 c35 0 45 4 49 20 11
42 8 302 -4 316 -12 14 -70 19 -82 7z"/>
<path d="M4537 4634 c-4 -4 -7 -83 -7 -176 l0 -168 50 0 50 0 -2 173 -3 172
-40 3 c-23 2 -44 0 -48 -4z"/>
<path d="M4665 4628 c-3 -8 -4 -86 -3 -173 l3 -160 48 -3 47 -3 -2 173 -3 173
-43 3 c-28 2 -44 -1 -47 -10z"/>
<path d="M4807 4633 c-5 -7 -11 -288 -8 -330 1 -9 18 -13 51 -13 l50 0 -2 173
-3 172 -42 3 c-22 2 -44 -1 -46 -5z"/>
<path d="M4937 4634 c-4 -4 -7 -83 -7 -176 l0 -168 50 0 50 0 -2 173 -3 172
-40 3 c-23 2 -44 0 -48 -4z"/>
<path d="M5077 4633 c-4 -3 -7 -82 -7 -175 l0 -169 48 3 47 3 3 159 c2 108 -1
163 -9 172 -12 14 -70 19 -82 7z"/>
<path d="M5207 4633 c-4 -3 -7 -82 -7 -175 l0 -169 48 3 47 3 2 150 c3 193 3
195 -46 195 -21 0 -41 -3 -44 -7z"/>
<path d="M5335 4628 c-3 -8 -4 -86 -3 -173 l3 -160 47 -3 c37 -2 47 0 50 14 2
9 1 87 -2 173 l-5 156 -43 3 c-28 2 -44 -1 -47 -10z"/>
<path d="M5473 4628 c-13 -15 -17 -306 -4 -326 5 -9 24 -12 52 -10 l44 3 0
170 0 170 -41 3 c-25 2 -45 -2 -51 -10z"/>
<path d="M5607 4634 c-4 -4 -7 -83 -7 -176 l0 -169 48 3 47 3 0 170 0 170 -40
3 c-23 2 -44 0 -48 -4z"/>
<path d="M5734 4627 c-2 -7 -3 -85 -2 -172 l3 -160 44 -3 c24 -2 47 1 51 7 7
12 3 308 -5 329 -6 16 -84 16 -91 -1z"/>
<path d="M5876 4632 c-4 -7 -9 -237 -6 -325 0 -15 7 -18 48 -15 l47 3 2 115
c1 107 -1 120 -25 170 -25 51 -53 73 -66 52z"/>
<path d="M3098 4405 c-24 -34 -38 -65 -38 -85 0 -31 0 -31 48 -28 l47 3 3 83
c3 100 -7 105 -60 27z"/>
<path d="M6002 4378 l3 -83 48 -3 c46 -3 47 -3 47 27 0 16 -6 36 -13 43 -6 7
-24 32 -40 56 -15 23 -32 42 -38 42 -6 0 -9 -31 -7 -82z"/>
<path d="M4509 4136 c-3 -3 -669 -7 -1480 -8 l-1474 -3 -3 -67 -3 -68 693 -2
c608 -3 693 -5 693 -18 0 -13 -83 -15 -685 -16 -377 -1 -691 -2 -697 -3 -10
-1 -13 -109 -13 -506 l0 -505 -78 0 -78 0 -71 -135 c-38 -74 -68 -137 -65
-140 3 -3 383 -5 844 -5 l838 0 11 27 c10 27 22 54 60 138 44 97 99 229 99
237 0 4 -31 8 -69 8 -64 0 -69 1 -64 20 5 20 12 20 1682 18 1482 -3 1676 -5
1676 -18 0 -12 -20 -16 -112 -18 -88 -2 -113 -6 -113 -17 0 -10 146 -318 178
-373 6 -10 177 -13 850 -15 472 -1 842 2 842 7 0 9 -17 36 -115 188 l-60 93
-90 5 -90 5 -3 493 c-2 383 -5 492 -15 492 -564 1 -1359 8 -1363 13 -25 25 36
27 684 27 l677 0 -2 61 c-1 34 -5 64 -8 67 -4 4 -651 8 -1438 9 -788 2 -1477
6 -1532 9 -55 4 -102 4 -106 0z m-931 -163 c-3 -17 -23 -18 -263 -16 -143 1
-263 2 -267 3 -5 0 -8 7 -8 15 0 13 37 15 271 15 252 0 270 -1 267 -17z m167
-3 c0 -17 -33 -21 -52 -7 -19 14 -4 29 25 25 16 -2 27 -9 27 -18z m769 11 c3
-5 0 -13 -7 -19 -14 -11 -641 -11 -652 0 -24 24 22 28 330 28 178 0 326 -4
329 -9z m821 -2 c4 -6 4 -13 0 -17 -11 -11 -654 -12 -660 -2 -4 6 -3 15 0 20
9 14 652 14 660 -1z m163 -6 c-3 -17 -45 -26 -54 -11 -9 14 6 28 32 28 18 0
25 -5 22 -17z m637 8 c3 -5 1 -12 -5 -16 -15 -9 -505 -14 -520 -5 -7 4 -9 13
-6 19 9 14 522 16 531 2z m-926 -128 c13 -15 48 -54 77 -87 l54 -59 2 -268 c0
-148 1 -275 2 -281 1 -18 -420 -24 -440 -7 -11 9 -14 64 -14 280 l0 269 -300
0 -300 0 -2 -277 -3 -278 -220 0 c-170 0 -220 3 -219 13 1 6 2 135 3 285 l2
272 82 85 82 85 585 -2 585 -2 24 -28z m-2267 -318 c1 -190 2 -355 2 -367 1
-20 -4 -23 -34 -23 l-35 0 -3 368 -2 367 35 0 35 0 2 -345z m565 261 l71 -82
4 -287 3 -287 -273 2 -274 3 2 284 1 284 77 83 77 83 120 0 120 0 72 -83z
m243 -258 c0 -189 3 -353 6 -365 4 -16 0 -23 -16 -28 -25 -8 -73 2 -66 14 3 4
6 166 6 359 1 193 4 353 8 356 3 3 18 6 34 6 l28 0 0 -342z m1750 3 c0 -186 3
-353 6 -370 7 -32 7 -32 -32 -29 -30 2 -39 7 -38 21 0 9 1 175 2 367 l2 350
30 0 30 0 0 -339z m551 258 l74 -81 5 -281 c3 -155 4 -285 2 -289 -4 -10 -514
-10 -527 0 -6 4 -8 105 -5 285 l5 278 78 84 78 85 108 0 107 0 75 -81z m277
-286 l-3 -368 -45 0 -45 0 -3 368 -2 367 50 0 50 0 -2 -367z m-4420 290 c30
-5 32 -7 32 -49 0 -23 -5 -46 -11 -49 -19 -12 -123 -17 -159 -8 -31 8 -35 13
-38 47 -5 55 10 66 82 65 33 0 76 -3 94 -6z m390 -2 c9 -5 12 -24 10 -52 l-3
-44 -58 -9 c-34 -5 -76 -5 -100 0 -40 8 -42 11 -45 47 -5 59 8 67 102 67 44 0
87 -4 94 -9z m350 -47 l3 -52 -43 -5 c-24 -3 -56 -4 -73 -3 -16 2 -42 4 -57 4
-27 2 -28 5 -28 51 0 30 5 51 13 55 6 2 50 4 97 3 l85 -2 3 -51z m4042 37 c14
-26 13 -78 -2 -87 -14 -9 -121 -13 -165 -6 -32 4 -33 6 -33 52 0 29 5 50 13
53 6 3 49 6 94 6 72 1 84 -2 93 -18z m358 13 c18 -5 22 -13 22 -50 0 -23 -5
-46 -10 -49 -16 -10 -173 -11 -187 -2 -16 10 -17 79 -1 95 13 13 135 17 176 6z
m363 -16 c6 -10 9 -33 7 -51 -3 -29 -7 -33 -49 -41 -25 -5 -71 -6 -102 -2
l-57 7 0 49 c0 30 5 50 13 53 6 2 49 4 95 4 72 1 84 -2 93 -19z m-2551 -377
c0 -143 -4 -262 -9 -265 -27 -17 -32 28 -30 251 l1 228 -228 0 -229 0 -3 -243
c-2 -225 -4 -243 -20 -240 -16 3 -17 26 -20 266 l-2 262 270 0 270 0 0 -259z"/>
<path d="M3460 3060 c-120 -4 -145 -8 -145 -20 0 -13 150 -15 1280 -18 704 -1
1286 0 1294 3 12 5 12 9 -3 23 -16 16 -93 17 -1149 17 -623 0 -1197 -2 -1277
-5z"/>
<path d="M3287 2973 c-34 -33 -35 -33 1319 -33 1257 0 1325 1 1322 18 -3 16
-75 17 -1319 20 -724 1 -1319 -1 -1322 -5z"/>
<path d="M3247 2883 c-34 -33 -36 -33 1359 -33 1295 0 1365 1 1362 18 -3 16
-77 17 -1359 20 -746 1 -1359 -1 -1362 -5z"/>
<path d="M3207 2793 c-34 -33 -37 -33 1399 -33 1333 0 1405 1 1402 18 -3 16
-79 17 -1399 20 -768 1 -1399 -1 -1402 -5z"/>
<path d="M3163 2695 c-3 -9 -3 -18 -1 -20 3 -4 2080 -7 2871 -5 25 0 27 2 17
20 -11 20 -21 20 -1446 20 -1284 0 -1435 -2 -1441 -15z"/>
<path d="M1140 2592 c0 -5 14 -28 30 -50 l30 -42 3410 0 3410 0 30 42 c16 22
30 45 30 50 0 4 -1561 8 -3470 8 -1908 0 -3470 -4 -3470 -8z"/>
<path d="M1210 2473 c0 -3 11 -26 25 -50 l26 -43 3348 0 3348 0 31 44 c17 24
28 46 25 50 -8 8 -6803 8 -6803 -1z"/>
<path d="M2450 2349 c0 -19 148 -166 261 -259 360 -295 899 -523 1424 -600
346 -52 751 -42 1081 25 458 93 886 281 1242 544 171 126 357 272 360 282 2 5
-35 9 -89 9 l-92 0 -95 -72 c-277 -211 -300 -227 -487 -330 -276 -153 -554
-254 -870 -317 -236 -47 -598 -64 -840 -41 -449 44 -982 218 -1305 425 -129
84 -289 207 -385 297 l-50 48 -77 0 c-52 0 -78 -4 -78 -11z"/>
<path d="M2680 2352 c0 -4 21 -18 47 -32 l47 -25 1836 0 1835 0 53 28 c28 15
52 30 52 32 0 3 -871 5 -1935 5 -1064 0 -1935 -3 -1935 -8z"/>
<path d="M4860 2111 c15 -4 32 -21 43 -44 18 -35 18 -39 1 -76 -10 -24 -31
-47 -53 -60 -25 -14 -30 -21 -17 -21 53 0 126 70 126 122 -1 43 -54 89 -102
87 -23 -1 -23 -1 2 -8z"/>
<path d="M5281 2104 c-39 -17 -37 -30 3 -15 31 12 76 -1 76 -23 0 -19 -27 -46
-48 -47 -9 0 -3 -5 13 -11 41 -15 55 -27 55 -49 0 -29 -49 -49 -93 -39 -29 6
-37 5 -37 -6 0 -24 102 -19 134 7 33 26 35 71 5 93 -20 14 -20 16 -5 31 25 25
19 45 -19 61 -41 17 -41 17 -84 -2z"/>
<path d="M3889 2103 c-1 -4 0 -45 1 -91 1 -53 -3 -88 -10 -97 -11 -13 -6 -15
31 -15 25 0 39 4 32 8 -8 5 -13 42 -15 102 -3 81 -6 95 -20 98 -10 2 -18 0
-19 -5z"/>
<path d="M4312 2098 c-17 -17 -15 -53 3 -68 21 -17 19 -37 -5 -50 -30 -16 -25
-47 11 -65 17 -9 36 -14 42 -11 7 2 4 5 -5 5 -19 1 -34 41 -24 66 10 26 34 28
72 5 29 -19 34 -27 30 -46 -9 -32 11 -31 26 2 11 24 9 29 -15 50 -32 28 -33
35 -7 52 33 20 20 72 -18 72 -12 0 -12 -3 -2 -15 7 -8 10 -25 6 -40 -5 -20
-13 -25 -35 -25 -39 0 -64 26 -57 56 7 26 -3 31 -22 12z"/>
<path d="M4781 2084 c-27 -34 -26 -50 4 -79 16 -17 34 -25 57 -24 30 1 31 2 8
8 -35 10 -56 56 -42 93 13 35 0 36 -27 2z"/>
<path d="M3213 1175 c-7 -20 22 -47 47 -43 20 4 26 48 7 48 -9 0 -22 3 -31 6
-10 4 -18 -1 -23 -11z"/>
<path d="M3310 1145 c-13 -34 -13 -85 1 -85 10 0 34 50 41 85 5 31 -30 32 -42
0z"/>
<path d="M4435 1001 c-9 -16 3 -31 26 -31 14 0 19 6 17 17 -4 20 -33 29 -43
14z"/>
<path d="M4453 923 c-7 -2 -13 -9 -13 -15 0 -12 41 -6 41 7 1 12 -11 15 -28 8z"/>
<path d="M4425 869 c-4 -6 -5 -12 -2 -15 7 -7 37 7 37 17 0 13 -27 11 -35 -2z"/>
</g>
</svg>
